{
    "asset" : {
        "generator" : "Khronos glTF Blender I/O v3.4.49",
        "version" : "2.0"
    },
    "scene" : 0,
    "scenes" : [
        {
            "name" : "Scene",
            "nodes" : [
                0,
                1
            ]
        }
    ],
    "nodes" : [
        {
            "mesh" : 0,
            "name" : "skin"
        },
        {
            "mesh" : 1,
            "name" : "weapon"
        }
    ],
    "materials" : [
        {
            "doubleSided" : true,
            "name" : "skin",
            "normalTexture" : {
                "index" : 0
            },
            "pbrMetallicRoughness" : {
                "baseColorTexture" : {
                    "index" : 1
                },
                "metallicFactor" : 0,
                "roughnessFactor" : 0.4000000059604645
            }
        },
        {
            "doubleSided" : true,
            "name" : "weapon",
            "normalTexture" : {
                "index" : 2
            },
            "pbrMetallicRoughness" : {
                "baseColorTexture" : {
                    "index" : 3
                },
                "metallicFactor" : 0,
                "metallicRoughnessTexture" : {
                    "index" : 4
                }
            }
        }
    ],
    "meshes" : [
        {
            "name" : "skin",
            "primitives" : [
                {
                    "attributes" : {
                        "POSITION" : 0,
                        "TEXCOORD_0" : 1,
                        "NORMAL" : 2
                    },
                    "indices" : 3,
                    "material" : 0
                }
            ]
        },
        {
            "name" : "weapon",
            "primitives" : [
                {
                    "attributes" : {
                        "POSITION" : 4,
                        "TEXCOORD_0" : 5,
                        "NORMAL" : 6
                    },
                    "indices" : 7,
                    "material" : 1
                }
            ]
        }
    ],
    "textures" : [
        {
            "sampler" : 0,
            "source" : 0
        },
        {
            "sampler" : 0,
            "source" : 1
        },
        {
            "sampler" : 0,
            "source" : 2
        },
        {
            "sampler" : 0,
            "source" : 3
        },
        {
            "sampler" : 0,
            "source" : 4
        }
    ],
    "images" : [
        {
            "bufferView" : 4,
            "mimeType" : "image/png",
            "name" : "war2fanny_skin_high_n"
        },
        {
            "bufferView" : 5,
            "mimeType" : "image/png",
            "name" : "war2fanny_skin_high_d"
        },
        {
            "bufferView" : 10,
            "mimeType" : "image/png",
            "name" : "war2fanny_skin_high_weapon_n"
        },
        {
            "bufferView" : 11,
            "mimeType" : "image/png",
            "name" : "war2fanny_skin_high_weapon_d"
        },
        {
            "bufferView" : 12,
            "mimeType" : "image/png",
            "name" : "war2fanny_skin_high_weapon_s"
        }
    ],
    "accessors" : [
        {
            "bufferView" : 0,
            "componentType" : 5126,
            "count" : 28488,
            "max" : [
                0.6841413378715515,
                1.8554915189743042,
                0.10909289121627808
            ],
            "min" : [
                -0.6841393709182739,
                -0.0016698837280273438,
                -0.2520700693130493
            ],
            "type" : "VEC3"
        },
        {
            "bufferView" : 1,
            "componentType" : 5126,
            "count" : 28488,
            "type" : "VEC2"
        },
        {
            "bufferView" : 2,
            "componentType" : 5126,
            "count" : 28488,
            "type" : "VEC3"
        },
        {
            "bufferView" : 3,
            "componentType" : 5123,
            "count" : 28488,
            "type" : "SCALAR"
        },
        {
            "bufferView" : 6,
            "componentType" : 5126,
            "count" : 7974,
            "max" : [
                1.0636531114578247,
                1.2763422727584839,
                0.11005890369415283
            ],
            "min" : [
                -1.0636540651321411,
                0.008224129676818848,
                -0.15540969371795654
            ],
            "type" : "VEC3"
        },
        {
            "bufferView" : 7,
            "componentType" : 5126,
            "count" : 7974,
            "type" : "VEC2"
        },
        {
            "bufferView" : 8,
            "componentType" : 5126,
            "count" : 7974,
            "type" : "VEC3"
        },
        {
            "bufferView" : 9,
            "componentType" : 5123,
            "count" : 7974,
            "type" : "SCALAR"
        }
    ],
    "bufferViews" : [
        {
            "buffer" : 0,
            "byteLength" : 341856,
            "byteOffset" : 0,
            "target" : 34962
        },
        {
            "buffer" : 0,
            "byteLength" : 227904,
            "byteOffset" : 341856,
            "target" : 34962
        },
        {
            "buffer" : 0,
            "byteLength" : 341856,
            "byteOffset" : 569760,
            "target" : 34962
        },
        {
            "buffer" : 0,
            "byteLength" : 56976,
            "byteOffset" : 911616,
            "target" : 34963
        },
        {
            "buffer" : 0,
            "byteLength" : 479807,
            "byteOffset" : 968592
        },
        {
            "buffer" : 0,
            "byteLength" : 231219,
            "byteOffset" : 1448400
        },
        {
            "buffer" : 0,
            "byteLength" : 95688,
            "byteOffset" : 1679620,
            "target" : 34962
        },
        {
            "buffer" : 0,
            "byteLength" : 63792,
            "byteOffset" : 1775308,
            "target" : 34962
        },
        {
            "buffer" : 0,
            "byteLength" : 95688,
            "byteOffset" : 1839100,
            "target" : 34962
        },
        {
            "buffer" : 0,
            "byteLength" : 15948,
            "byteOffset" : 1934788,
            "target" : 34963
        },
        {
            "buffer" : 0,
            "byteLength" : 129498,
            "byteOffset" : 1950736
        },
        {
            "buffer" : 0,
            "byteLength" : 67930,
            "byteOffset" : 2080236
        },
        {
            "buffer" : 0,
            "byteLength" : 52057,
            "byteOffset" : 2148168
        }
    ],
    "samplers" : [
        {
            "magFilter" : 9729,
            "minFilter" : 9987
        }
    ],
    "buffers" : [
        {
            "byteLength" : 2200228,
            "uri" : "data:application/octet-stream;base64,"
        }
    ]
}
